<?xml version="1.0" encoding="UTF-8" standalone="no"?>
<!DOCTYPE svg PUBLIC "-//W3C//DTD SVG 1.1//EN"
 "http://www.w3.org/Graphics/SVG/1.1/DTD/svg11.dtd">
<!-- Generated by graphviz version 2.42.3 (0)
 -->
<!-- Title: %3 Pages: 1 -->
<svg width="319pt" height="260pt"
 viewBox="0.00 0.00 319.34 260.00" xmlns="http://www.w3.org/2000/svg" xmlns:xlink="http://www.w3.org/1999/xlink">
<g id="graph0" class="graph" transform="scale(1 1) rotate(0) translate(4 256)">
<title>%3</title>
<polygon fill="white" stroke="transparent" points="-4,4 -4,-256 315.34,-256 315.34,4 -4,4"/>
<!-- new -->
<g id="node1" class="node">
<title>new</title>
<ellipse fill="none" stroke="black" cx="172.95" cy="-234" rx="29.8" ry="18"/>
<text text-anchor="middle" x="172.95" y="-230.3" font-family="Times,serif" font-size="14.00">new</text>
</g>
<!-- fetching -->
<g id="node2" class="node">
<title>fetching</title>
<ellipse fill="none" stroke="black" cx="172.95" cy="-162" rx="48.99" ry="18"/>
<text text-anchor="middle" x="172.95" y="-158.3" font-family="Times,serif" font-size="14.00">fetching</text>
</g>
<!-- new&#45;&gt;fetching -->
<g id="edge1" class="edge">
<title>new&#45;&gt;fetching</title>
<path fill="none" stroke="black" d="M172.95,-215.7C172.95,-207.98 172.95,-198.71 172.95,-190.11"/>
<polygon fill="black" stroke="black" points="176.45,-190.1 172.95,-180.1 169.45,-190.1 176.45,-190.1"/>
</g>
<!-- building -->
<g id="node3" class="node">
<title>building</title>
<ellipse fill="none" stroke="black" cx="172.95" cy="-90" rx="48.99" ry="18"/>
<text text-anchor="middle" x="172.95" y="-86.3" font-family="Times,serif" font-size="14.00">building</text>
</g>
<!-- fetching&#45;&gt;building -->
<g id="edge2" class="edge">
<title>fetching&#45;&gt;building</title>
<path fill="none" stroke="black" d="M172.95,-143.7C172.95,-135.98 172.95,-126.71 172.95,-118.11"/>
<polygon fill="black" stroke="black" points="176.45,-118.1 172.95,-108.1 169.45,-118.1 176.45,-118.1"/>
</g>
<!-- cancelled -->
<g id="node5" class="node">
<title>cancelled</title>
<ellipse fill="none" stroke="black" cx="53.95" cy="-18" rx="53.89" ry="18"/>
<text text-anchor="middle" x="53.95" y="-14.3" font-family="Times,serif" font-size="14.00">cancelled</text>
</g>
<!-- fetching&#45;&gt;cancelled -->
<g id="edge4" class="edge">
<title>fetching&#45;&gt;cancelled</title>
<path fill="none" stroke="black" d="M153.62,-145.31C141.81,-135.25 126.76,-121.59 114.95,-108 97.6,-88.05 80.83,-63.04 69.29,-44.62"/>
<polygon fill="black" stroke="black" points="72.13,-42.57 63.9,-35.9 66.18,-46.25 72.13,-42.57"/>
</g>
<!-- failed -->
<g id="node6" class="node">
<title>failed</title>
<ellipse fill="none" stroke="black" cx="274.95" cy="-18" rx="36.29" ry="18"/>
<text text-anchor="middle" x="274.95" y="-14.3" font-family="Times,serif" font-size="14.00">failed</text>
</g>
<!-- fetching&#45;&gt;failed -->
<g id="edge5" class="edge">
<title>fetching&#45;&gt;failed</title>
<path fill="none" stroke="black" d="M193.52,-145.42C205.5,-135.62 220.29,-122.17 230.95,-108 245.52,-88.62 257.37,-63.65 265.08,-45.1"/>
<polygon fill="black" stroke="black" points="268.34,-46.37 268.83,-35.79 261.85,-43.76 268.34,-46.37"/>
</g>
<!-- finished -->
<g id="node4" class="node">
<title>finished</title>
<ellipse fill="none" stroke="black" cx="172.95" cy="-18" rx="47.39" ry="18"/>
<text text-anchor="middle" x="172.95" y="-14.3" font-family="Times,serif" font-size="14.00">finished</text>
</g>
<!-- building&#45;&gt;finished -->
<g id="edge3" class="edge">
<title>building&#45;&gt;finished</title>
<path fill="none" stroke="black" d="M172.95,-71.7C172.95,-63.98 172.95,-54.71 172.95,-46.11"/>
<polygon fill="black" stroke="black" points="176.45,-46.1 172.95,-36.1 169.45,-46.1 176.45,-46.1"/>
</g>
<!-- building&#45;&gt;cancelled -->
<g id="edge6" class="edge">
<title>building&#45;&gt;cancelled</title>
<path fill="none" stroke="black" d="M148,-74.33C130.58,-64.08 107.12,-50.28 87.99,-39.03"/>
<polygon fill="black" stroke="black" points="89.66,-35.95 79.27,-33.9 86.11,-41.98 89.66,-35.95"/>
</g>
<!-- building&#45;&gt;failed -->
<g id="edge7" class="edge">
<title>building&#45;&gt;failed</title>
<path fill="none" stroke="black" d="M195.08,-73.81C210.01,-63.57 229.86,-49.94 246.04,-38.84"/>
<polygon fill="black" stroke="black" points="248.32,-41.51 254.59,-32.97 244.36,-35.74 248.32,-41.51"/>
</g>
</g>
</svg>
