<?xml version="1.0" encoding="UTF-8" standalone="no"?>
<!DOCTYPE svg PUBLIC "-//W3C//DTD SVG 1.1//EN"
 "http://www.w3.org/Graphics/SVG/1.1/DTD/svg11.dtd">
<!-- Generated by graphviz version 2.42.3 (0)
 -->
<!-- Title: %3 Pages: 1 -->
<svg width="281pt" height="260pt"
 viewBox="0.00 0.00 281.39 260.00" xmlns="http://www.w3.org/2000/svg" xmlns:xlink="http://www.w3.org/1999/xlink">
<g id="graph0" class="graph" transform="scale(1 1) rotate(0) translate(4 256)">
<title>%3</title>
<polygon fill="white" stroke="transparent" points="-4,4 -4,-256 277.39,-256 277.39,4 -4,4"/>
<!-- new -->
<g id="node1" class="node">
<title>new</title>
<ellipse fill="none" stroke="black" cx="158.45" cy="-234" rx="29.8" ry="18"/>
<text text-anchor="middle" x="158.45" y="-230.3" font-family="Times,serif" font-size="14.00">new</text>
</g>
<!-- fetching -->
<g id="node2" class="node">
<title>fetching</title>
<ellipse fill="none" stroke="black" cx="158.45" cy="-162" rx="48.99" ry="18"/>
<text text-anchor="middle" x="158.45" y="-158.3" font-family="Times,serif" font-size="14.00">fetching</text>
</g>
<!-- new&#45;&gt;fetching -->
<g id="edge1" class="edge">
<title>new&#45;&gt;fetching</title>
<path fill="none" stroke="black" d="M158.45,-215.7C158.45,-207.98 158.45,-198.71 158.45,-190.11"/>
<polygon fill="black" stroke="black" points="161.95,-190.1 158.45,-180.1 154.95,-190.1 161.95,-190.1"/>
</g>
<!-- building -->
<g id="node3" class="node">
<title>building</title>
<ellipse fill="none" stroke="black" cx="98.45" cy="-90" rx="48.99" ry="18"/>
<text text-anchor="middle" x="98.45" y="-86.3" font-family="Times,serif" font-size="14.00">building</text>
</g>
<!-- fetching&#45;&gt;building -->
<g id="edge2" class="edge">
<title>fetching&#45;&gt;building</title>
<path fill="none" stroke="black" d="M144.23,-144.41C136.75,-135.69 127.46,-124.85 119.2,-115.21"/>
<polygon fill="black" stroke="black" points="121.73,-112.78 112.56,-107.47 116.41,-117.34 121.73,-112.78"/>
</g>
<!-- cancelled -->
<g id="node5" class="node">
<title>cancelled</title>
<ellipse fill="none" stroke="black" cx="219.45" cy="-90" rx="53.89" ry="18"/>
<text text-anchor="middle" x="219.45" y="-86.3" font-family="Times,serif" font-size="14.00">cancelled</text>
</g>
<!-- fetching&#45;&gt;cancelled -->
<g id="edge4" class="edge">
<title>fetching&#45;&gt;cancelled</title>
<path fill="none" stroke="black" d="M172.59,-144.76C180.18,-136.06 189.69,-125.15 198.15,-115.43"/>
<polygon fill="black" stroke="black" points="201.02,-117.47 204.95,-107.63 195.74,-112.87 201.02,-117.47"/>
</g>
<!-- finished -->
<g id="node4" class="node">
<title>finished</title>
<ellipse fill="none" stroke="black" cx="47.45" cy="-18" rx="47.39" ry="18"/>
<text text-anchor="middle" x="47.45" y="-14.3" font-family="Times,serif" font-size="14.00">finished</text>
</g>
<!-- building&#45;&gt;finished -->
<g id="edge3" class="edge">
<title>building&#45;&gt;finished</title>
<path fill="none" stroke="black" d="M86.36,-72.41C80.14,-63.87 72.42,-53.28 65.51,-43.79"/>
<polygon fill="black" stroke="black" points="68.16,-41.49 59.45,-35.47 62.51,-45.61 68.16,-41.49"/>
</g>
<!-- failed -->
<g id="node6" class="node">
<title>failed</title>
<ellipse fill="none" stroke="black" cx="149.45" cy="-18" rx="36.29" ry="18"/>
<text text-anchor="middle" x="149.45" y="-14.3" font-family="Times,serif" font-size="14.00">failed</text>
</g>
<!-- building&#45;&gt;failed -->
<g id="edge5" class="edge">
<title>building&#45;&gt;failed</title>
<path fill="none" stroke="black" d="M110.53,-72.41C116.76,-63.87 124.47,-53.28 131.39,-43.79"/>
<polygon fill="black" stroke="black" points="134.39,-45.61 137.45,-35.47 128.73,-41.49 134.39,-45.61"/>
</g>
</g>
</svg>
