<?xml version="1.0" encoding="UTF-8" standalone="no"?>
<!DOCTYPE svg PUBLIC "-//W3C//DTD SVG 1.1//EN"
 "http://www.w3.org/Graphics/SVG/1.1/DTD/svg11.dtd">
<!-- Generated by graphviz version 2.43.0 (0)
 -->
<!-- Title: %3 Pages: 1 -->
<svg width="853pt" height="615pt"
 viewBox="0.00 0.00 853.00 614.59" xmlns="http://www.w3.org/2000/svg" xmlns:xlink="http://www.w3.org/1999/xlink">
<g id="graph0" class="graph" transform="scale(1 1) rotate(0) translate(4 610.59)">
<title>%3</title>
<polygon fill="white" stroke="transparent" points="-4,4 -4,-610.59 849,-610.59 849,4 -4,4"/>
<text text-anchor="middle" x="422.5" y="-591.39" font-family="Times,serif" font-size="14.00">AOINB Structure</text>
<g id="clust1" class="cluster">
<title>cluster_trigger</title>
<polygon fill="none" stroke="black" points="170,-330.85 170,-423.59 400,-423.59 400,-330.85 170,-330.85"/>
<text text-anchor="middle" x="285" y="-408.39" font-family="Times,serif" font-size="14.00">Build Trigger</text>
</g>
<g id="clust2" class="cluster">
<title>cluster_scheduler</title>
<polygon fill="none" stroke="black" points="352,-48 352,-248.74 514,-248.74 514,-48 352,-48"/>
<text text-anchor="middle" x="433" y="-233.54" font-family="Times,serif" font-size="14.00">Scheduler</text>
</g>
<g id="clust3" class="cluster">
<title>cluster_worker</title>
<polygon fill="none" stroke="black" points="587,-257.74 587,-575.59 755,-575.59 755,-257.74 587,-257.74"/>
<text text-anchor="middle" x="671" y="-560.39" font-family="Times,serif" font-size="14.00">Builder</text>
</g>
<g id="clust4" class="cluster">
<title>cluster_stats</title>
<polygon fill="none" stroke="black" points="522,-119.74 522,-248.74 716,-248.74 716,-119.74 522,-119.74"/>
<text text-anchor="middle" x="619" y="-233.54" font-family="Times,serif" font-size="14.00">Log &amp; Stats</text>
</g>
<g id="clust5" class="cluster">
<title>cluster_repo</title>
<polygon fill="none" stroke="black" points="8,-256.74 8,-500.59 162,-500.59 162,-256.74 8,-256.74"/>
<text text-anchor="middle" x="85" y="-485.39" font-family="Times,serif" font-size="14.00">Repo manager</text>
</g>
<!-- rebuild -->
<g id="node1" class="node">
<title>rebuild</title>
<ellipse fill="none" stroke="black" cx="85" cy="-199.74" rx="75.29" ry="18"/>
<text text-anchor="middle" x="85" y="-196.04" font-family="sans" font-size="14.00">Rebuild checker</text>
</g>
<!-- git_repo -->
<g id="node3" class="node">
<title>git_repo</title>
<polygon fill="none" stroke="black" points="221,-163.74 155,-163.74 155,-127.74 221,-127.74 221,-163.74"/>
<text text-anchor="middle" x="188" y="-142.04" font-family="sans" font-size="14.00">Git repo</text>
</g>
<!-- rebuild&#45;&gt;git_repo -->
<g id="edge27" class="edge">
<title>rebuild&#45;&gt;git_repo</title>
<path fill="none" stroke="black" d="M115.62,-183.28C125.07,-178.51 135.64,-173.17 145.72,-168.08"/>
<polygon fill="black" stroke="black" points="147.45,-171.13 154.8,-163.5 144.29,-164.88 147.45,-171.13"/>
</g>
<!-- update -->
<g id="node2" class="node">
<title>update</title>
<ellipse fill="none" stroke="black" cx="279" cy="-199.74" rx="63.09" ry="18"/>
<text text-anchor="middle" x="279" y="-196.04" font-family="sans" font-size="14.00">Auto updater</text>
</g>
<!-- update&#45;&gt;git_repo -->
<g id="edge28" class="edge">
<title>update&#45;&gt;git_repo</title>
<path fill="none" stroke="black" d="M252.19,-183.42C244.17,-178.84 235.22,-173.72 226.61,-168.8"/>
<polygon fill="black" stroke="black" points="228.22,-165.69 217.8,-163.77 224.75,-171.77 228.22,-165.69"/>
</g>
<!-- gitupd -->
<g id="node11" class="node">
<title>gitupd</title>
<ellipse fill="none" stroke="black" cx="234" cy="-365.72" rx="55.79" ry="18"/>
<text text-anchor="middle" x="234" y="-362.02" font-family="sans" font-size="14.00">Git commit</text>
</g>
<!-- git_repo&#45;&gt;gitupd -->
<g id="edge1" class="edge">
<title>git_repo&#45;&gt;gitupd</title>
<path fill="none" stroke="black" d="M189.42,-164.18C192.15,-194.35 199.13,-258.07 213,-310.24 215.5,-319.63 219.07,-329.64 222.56,-338.47"/>
<polygon fill="black" stroke="black" points="219.38,-339.93 226.41,-347.86 225.86,-337.28 219.38,-339.93"/>
</g>
<!-- trg_sch -->
<g id="node4" class="node">
<title>trg_sch</title>
<polygon fill="none" stroke="black" points="344.5,-310.24 221.5,-310.24 221.5,-257.24 350.5,-257.24 350.5,-304.24 344.5,-310.24"/>
<polyline fill="none" stroke="black" points="344.5,-310.24 344.5,-304.24 "/>
<polyline fill="none" stroke="black" points="350.5,-304.24 344.5,-304.24 "/>
<text text-anchor="middle" x="286" y="-295.04" font-family="sans" font-size="14.00">Git url</text>
<text text-anchor="middle" x="286" y="-280.04" font-family="sans" font-size="14.00">Base commit+diff</text>
<text text-anchor="middle" x="286" y="-265.04" font-family="sans" font-size="14.00">Build list</text>
</g>
<!-- abbs_dep -->
<g id="node12" class="node">
<title>abbs_dep</title>
<ellipse fill="none" stroke="black" cx="408" cy="-199.74" rx="48.19" ry="18"/>
<text text-anchor="middle" x="408" y="-196.04" font-family="sans" font-size="14.00">abbs&#45;dep</text>
</g>
<!-- trg_sch&#45;&gt;abbs_dep -->
<g id="edge5" class="edge">
<title>trg_sch&#45;&gt;abbs_dep</title>
<path fill="none" stroke="black" d="M337.36,-257.23C342.05,-254.5 346.66,-251.65 351,-248.74 362.08,-241.31 373.48,-232.07 383.15,-223.7"/>
<polygon fill="black" stroke="black" points="385.64,-226.16 390.82,-216.92 381.01,-220.92 385.64,-226.16"/>
</g>
<!-- sch_wrk -->
<g id="node5" class="node">
<title>sch_wrk</title>
<polygon fill="none" stroke="black" points="686,-38 594,-38 594,0 692,0 692,-32 686,-38"/>
<polyline fill="none" stroke="black" points="686,-38 686,-32 "/>
<polyline fill="none" stroke="black" points="692,-32 686,-32 "/>
<text text-anchor="middle" x="643" y="-22.8" font-family="sans" font-size="14.00">spec/defines</text>
<text text-anchor="middle" x="643" y="-7.8" font-family="sans" font-size="14.00">sources.list</text>
</g>
<!-- downloader -->
<g id="node15" class="node">
<title>downloader</title>
<ellipse fill="none" stroke="black" cx="687" cy="-526.59" rx="59.59" ry="18"/>
<text text-anchor="middle" x="687" y="-522.89" font-family="sans" font-size="14.00">Downloader</text>
</g>
<!-- sch_wrk&#45;&gt;downloader -->
<g id="edge11" class="edge">
<title>sch_wrk&#45;&gt;downloader</title>
<path fill="none" stroke="black" d="M692.16,-28.18C751.95,-41.26 845,-73.13 845,-144.74 845,-366.72 845,-366.72 845,-366.72 845,-433.09 774.81,-481.56 728,-506.51"/>
<polygon fill="black" stroke="black" points="726.24,-503.48 718.97,-511.18 729.46,-509.69 726.24,-503.48"/>
</g>
<!-- wrk_ls_log -->
<g id="node6" class="node">
<title>wrk_ls_log</title>
<polygon fill="none" stroke="black" stroke-dasharray="5,2" points="811,-301.74 763,-301.74 763,-265.74 817,-265.74 817,-295.74 811,-301.74"/>
<polyline fill="none" stroke="black" stroke-dasharray="5,2" points="811,-301.74 811,-295.74 "/>
<polyline fill="none" stroke="black" stroke-dasharray="5,2" points="817,-295.74 811,-295.74 "/>
<text text-anchor="middle" x="790" y="-280.04" font-family="sans" font-size="14.00">Log</text>
</g>
<!-- fs -->
<g id="node19" class="node">
<title>fs</title>
<polygon fill="none" stroke="black" points="707.5,-217.74 622.5,-217.74 622.5,-181.74 707.5,-181.74 707.5,-217.74"/>
<text text-anchor="middle" x="665" y="-196.04" font-family="sans" font-size="14.00">Filesystem</text>
</g>
<!-- wrk_ls_log&#45;&gt;fs -->
<g id="edge18" class="edge">
<title>wrk_ls_log&#45;&gt;fs</title>
<path fill="none" stroke="black" stroke-dasharray="5,2" d="M770.36,-265.47C766.67,-262.45 762.78,-259.42 759,-256.74 742.14,-244.77 722.63,-232.85 705.76,-223.11"/>
<polygon fill="black" stroke="black" points="707.12,-219.85 696.7,-217.94 703.65,-225.93 707.12,-219.85"/>
</g>
<!-- wrk_ls_stats -->
<g id="node7" class="node">
<title>wrk_ls_stats</title>
<polygon fill="none" stroke="black" stroke-dasharray="5,2" points="573,-301.74 525,-301.74 525,-265.74 579,-265.74 579,-295.74 573,-301.74"/>
<polyline fill="none" stroke="black" stroke-dasharray="5,2" points="573,-301.74 573,-295.74 "/>
<polyline fill="none" stroke="black" stroke-dasharray="5,2" points="579,-295.74 573,-295.74 "/>
<text text-anchor="middle" x="552" y="-280.04" font-family="sans" font-size="14.00">Stats</text>
</g>
<!-- db -->
<g id="node20" class="node">
<title>db</title>
<polygon fill="none" stroke="black" points="604.5,-217.74 529.5,-217.74 529.5,-181.74 604.5,-181.74 604.5,-217.74"/>
<text text-anchor="middle" x="567" y="-196.04" font-family="sans" font-size="14.00">Database</text>
</g>
<!-- wrk_ls_stats&#45;&gt;db -->
<g id="edge19" class="edge">
<title>wrk_ls_stats&#45;&gt;db</title>
<path fill="none" stroke="black" stroke-dasharray="5,2" d="M555.18,-265.35C557.16,-254.51 559.76,-240.34 562.01,-228.03"/>
<polygon fill="black" stroke="black" points="565.52,-228.29 563.87,-217.82 558.63,-227.03 565.52,-228.29"/>
</g>
<!-- wrk_sch -->
<g id="node8" class="node">
<title>wrk_sch</title>
<polygon fill="none" stroke="black" points="501,-301.74 451,-301.74 451,-265.74 507,-265.74 507,-295.74 501,-301.74"/>
<polyline fill="none" stroke="black" points="501,-301.74 501,-295.74 "/>
<polyline fill="none" stroke="black" points="507,-295.74 501,-295.74 "/>
<text text-anchor="middle" x="479" y="-280.04" font-family="sans" font-size="14.00">Status</text>
</g>
<!-- scheduler -->
<g id="node13" class="node">
<title>scheduler</title>
<ellipse fill="none" stroke="black" cx="433" cy="-145.74" rx="73.39" ry="18"/>
<text text-anchor="middle" x="433" y="-142.04" font-family="sans" font-size="14.00">Work scheduler</text>
</g>
<!-- wrk_sch&#45;&gt;scheduler -->
<g id="edge15" class="edge">
<title>wrk_sch&#45;&gt;scheduler</title>
<path fill="none" stroke="black" d="M479.65,-265.43C479.77,-244.58 477.8,-208.98 465,-181.74 463.28,-178.07 461.03,-174.52 458.53,-171.18"/>
<polygon fill="black" stroke="black" points="461.06,-168.74 451.94,-163.34 455.7,-173.25 461.06,-168.74"/>
</g>
<!-- wrk_repo -->
<g id="node9" class="node">
<title>wrk_repo</title>
<polygon fill="none" stroke="black" points="427,-301.74 379,-301.74 379,-265.74 433,-265.74 433,-295.74 427,-301.74"/>
<polyline fill="none" stroke="black" points="427,-301.74 427,-295.74 "/>
<polyline fill="none" stroke="black" points="433,-295.74 427,-295.74 "/>
<text text-anchor="middle" x="406" y="-280.04" font-family="sans" font-size="14.00">.deb</text>
</g>
<!-- dpkg_repo -->
<g id="node24" class="node">
<title>dpkg_repo</title>
<polygon fill="none" stroke="black" points="153.5,-469.59 48.5,-469.59 48.5,-431.59 153.5,-431.59 153.5,-469.59"/>
<text text-anchor="middle" x="101" y="-454.39" font-family="sans" font-size="14.00">dpkg repo</text>
<text text-anchor="middle" x="101" y="-439.39" font-family="sans" font-size="14.00">(source/local)</text>
</g>
<!-- wrk_repo&#45;&gt;dpkg_repo -->
<g id="edge24" class="edge">
<title>wrk_repo&#45;&gt;dpkg_repo</title>
<path fill="none" stroke="black" d="M412.19,-301.9C421.49,-331.09 434.89,-390.42 404,-423.59 388,-440.76 248.02,-446.62 164.02,-448.6"/>
<polygon fill="black" stroke="black" points="163.74,-445.11 153.82,-448.83 163.89,-452.1 163.74,-445.11"/>
</g>
<!-- manual -->
<g id="node10" class="node">
<title>manual</title>
<ellipse fill="none" stroke="black" cx="350" cy="-365.72" rx="42.35" ry="26.74"/>
<text text-anchor="middle" x="350" y="-369.52" font-family="sans" font-size="14.00">aoinb</text>
<text text-anchor="middle" x="350" y="-354.52" font-family="sans" font-size="14.00">cli tool</text>
</g>
<!-- gitupd&#45;&gt;trg_sch -->
<g id="edge4" class="edge">
<title>gitupd&#45;&gt;trg_sch</title>
<path fill="none" stroke="black" d="M256.02,-330.85C260.45,-324.04 265.04,-316.98 269.25,-310.5"/>
</g>
<!-- abbs_dep&#45;&gt;scheduler -->
<g id="edge2" class="edge">
<title>abbs_dep&#45;&gt;scheduler</title>
<path fill="none" stroke="black" d="M416.19,-181.71C417.51,-178.96 418.91,-176.05 420.31,-173.14"/>
<polygon fill="black" stroke="black" points="423.53,-174.51 424.71,-163.98 417.22,-171.48 423.53,-174.51"/>
</g>
<!-- ldownloader -->
<g id="node14" class="node">
<title>ldownloader</title>
<ellipse fill="none" stroke="black" stroke-dasharray="5,2" cx="437" cy="-82.87" rx="65.11" ry="26.74"/>
<text text-anchor="middle" x="437" y="-86.67" font-family="sans" font-size="14.00">Downloader</text>
<text text-anchor="middle" x="437" y="-71.67" font-family="sans" font-size="14.00">(local)</text>
</g>
<!-- scheduler&#45;&gt;ldownloader -->
<g id="edge3" class="edge">
<title>scheduler&#45;&gt;ldownloader</title>
<path fill="none" stroke="black" d="M434.14,-127.46C434.29,-125.06 434.46,-122.53 434.63,-119.94"/>
<polygon fill="black" stroke="black" points="438.13,-120.04 435.29,-109.83 431.15,-119.58 438.13,-120.04"/>
</g>
<!-- ldownloader&#45;&gt;sch_wrk -->
<g id="edge10" class="edge">
<title>ldownloader&#45;&gt;sch_wrk</title>
<path fill="none" stroke="black" d="M488.45,-66.42C520.75,-56.72 562.15,-44.28 593.98,-34.72"/>
</g>
<!-- buildah -->
<g id="node16" class="node">
<title>buildah</title>
<ellipse fill="none" stroke="black" cx="687" cy="-450.59" rx="40.09" ry="18"/>
<text text-anchor="middle" x="687" y="-446.89" font-family="sans" font-size="14.00">buildah</text>
</g>
<!-- downloader&#45;&gt;buildah -->
<g id="edge6" class="edge">
<title>downloader&#45;&gt;buildah</title>
<path fill="none" stroke="black" d="M687,-508.42C687,-499.64 687,-488.75 687,-478.85"/>
<polygon fill="black" stroke="black" points="690.5,-478.66 687,-468.66 683.5,-478.66 690.5,-478.66"/>
</g>
<!-- acbs -->
<g id="node17" class="node">
<title>acbs</title>
<ellipse fill="none" stroke="black" cx="661" cy="-365.72" rx="66.44" ry="37.45"/>
<text text-anchor="middle" x="661" y="-377.02" font-family="sans" font-size="14.00">acbs (new)</text>
<text text-anchor="middle" x="661" y="-362.02" font-family="sans" font-size="14.00">systemd&#45;run</text>
<text text-anchor="middle" x="661" y="-347.02" font-family="sans" font-size="14.00">autobuild3</text>
</g>
<!-- buildah&#45;&gt;acbs -->
<g id="edge7" class="edge">
<title>buildah&#45;&gt;acbs</title>
<path fill="none" stroke="black" d="M681.61,-432.42C679.75,-426.48 677.57,-419.53 675.33,-412.4"/>
<polygon fill="black" stroke="black" points="678.61,-411.15 672.28,-402.66 671.93,-413.25 678.61,-411.15"/>
</g>
<!-- abtest -->
<g id="node18" class="node">
<title>abtest</title>
<ellipse fill="none" stroke="black" cx="675" cy="-283.74" rx="55.79" ry="18"/>
<text text-anchor="middle" x="675" y="-280.04" font-family="sans" font-size="14.00">Test runner</text>
</g>
<!-- buildah&#45;&gt;abtest -->
<g id="edge8" class="edge">
<title>buildah&#45;&gt;abtest</title>
<path fill="none" stroke="black" d="M718.5,-439.26C725.44,-435.45 731.93,-430.35 736,-423.59 757.84,-387.27 755.41,-365.91 736,-328.24 731.08,-318.69 722.98,-310.77 714.27,-304.43"/>
<polygon fill="black" stroke="black" points="716.09,-301.43 705.82,-298.83 712.22,-307.27 716.09,-301.43"/>
</g>
<!-- acbs&#45;&gt;wrk_ls_log -->
<g id="edge13" class="edge">
<title>acbs&#45;&gt;wrk_ls_log</title>
<path fill="none" stroke="black" stroke-dasharray="5,2" d="M709.89,-339.8C725.91,-331.05 743.55,-320.76 759,-310.24 762.8,-307.65 766.7,-304.7 770.4,-301.75"/>
</g>
<!-- acbs&#45;&gt;wrk_ls_stats -->
<g id="edge14" class="edge">
<title>acbs&#45;&gt;wrk_ls_stats</title>
<path fill="none" stroke="black" stroke-dasharray="5,2" d="M619.28,-336.48C607.42,-328.21 594.58,-319.03 583,-310.24 579.56,-307.63 575.96,-304.79 572.5,-301.98"/>
</g>
<!-- acbs&#45;&gt;wrk_sch -->
<g id="edge12" class="edge">
<title>acbs&#45;&gt;wrk_sch</title>
<path fill="none" stroke="black" d="M603.49,-346.74C576.29,-337.33 543.77,-324.75 516,-310.24 511.3,-307.78 506.48,-304.83 501.95,-301.82"/>
</g>
<!-- acbs&#45;&gt;wrk_repo -->
<g id="edge23" class="edge">
<title>acbs:w&#45;&gt;wrk_repo</title>
<path fill="none" stroke="black" d="M593,-365.72C529.32,-365.72 462.74,-325.68 428.82,-301.91"/>
</g>
<!-- acbs&#45;&gt;abtest -->
<g id="edge9" class="edge">
<title>acbs&#45;&gt;abtest</title>
<path fill="none" stroke="black" d="M667.43,-328.01C668.37,-322.64 669.32,-317.2 670.22,-312.07"/>
<polygon fill="black" stroke="black" points="673.69,-312.54 671.96,-302.09 666.79,-311.34 673.69,-312.54"/>
</g>
<!-- dashboard -->
<g id="node21" class="node">
<title>dashboard</title>
<ellipse fill="none" stroke="black" cx="619" cy="-145.74" rx="54.69" ry="18"/>
<text text-anchor="middle" x="619" y="-142.04" font-family="sans" font-size="14.00">Dashboard</text>
</g>
<!-- fs&#45;&gt;dashboard -->
<g id="edge16" class="edge">
<title>fs&#45;&gt;dashboard</title>
<path fill="none" stroke="black" d="M649.94,-181.71C646.91,-178.29 643.67,-174.63 640.47,-171.01"/>
<polygon fill="black" stroke="black" points="642.87,-168.44 633.63,-163.27 637.63,-173.08 642.87,-168.44"/>
</g>
<!-- db&#45;&gt;scheduler -->
<g id="edge20" class="edge">
<title>db&#45;&gt;scheduler</title>
<path fill="none" stroke="black" stroke-dasharray="5,2" d="M529.32,-184.12C514.06,-178.2 496.28,-171.3 480.17,-165.05"/>
<polygon fill="black" stroke="black" points="480.99,-161.61 470.4,-161.25 478.46,-168.13 480.99,-161.61"/>
</g>
<!-- db&#45;&gt;dashboard -->
<g id="edge17" class="edge">
<title>db&#45;&gt;dashboard</title>
<path fill="none" stroke="black" d="M584.03,-181.71C587.64,-178.1 591.51,-174.23 595.32,-170.42"/>
<polygon fill="black" stroke="black" points="597.87,-172.82 602.47,-163.27 592.92,-167.87 597.87,-172.82"/>
</g>
<!-- p_vector -->
<g id="node22" class="node">
<title>p_vector</title>
<ellipse fill="none" stroke="black" cx="93" cy="-365.72" rx="43.59" ry="18"/>
<text text-anchor="middle" x="93" y="-362.02" font-family="sans" font-size="14.00">p&#45;vector</text>
</g>
<!-- metadata -->
<g id="node23" class="node">
<title>metadata</title>
<polygon fill="none" stroke="black" points="154,-302.74 16,-302.74 16,-264.74 154,-264.74 154,-302.74"/>
<text text-anchor="middle" x="85" y="-287.54" font-family="sans" font-size="14.00">Metadata Database</text>
<text text-anchor="middle" x="85" y="-272.54" font-family="sans" font-size="14.00">Relationship QA</text>
</g>
<!-- p_vector&#45;&gt;metadata -->
<g id="edge22" class="edge">
<title>p_vector&#45;&gt;metadata</title>
<path fill="none" stroke="black" d="M91.26,-347.36C90.26,-337.3 88.97,-324.39 87.82,-312.91"/>
<polygon fill="black" stroke="black" points="91.29,-312.49 86.82,-302.89 84.33,-313.19 91.29,-312.49"/>
</g>
<!-- metadata&#45;&gt;rebuild -->
<g id="edge26" class="edge">
<title>metadata&#45;&gt;rebuild</title>
<path fill="none" stroke="black" d="M85,-264.54C85,-253.74 85,-239.84 85,-227.78"/>
<polygon fill="black" stroke="black" points="88.5,-227.77 85,-217.77 81.5,-227.77 88.5,-227.77"/>
</g>
<!-- dpkg_repo&#45;&gt;acbs -->
<g id="edge25" class="edge">
<title>dpkg_repo&#45;&gt;acbs</title>
<path fill="none" stroke="black" d="M153.52,-448.2C219.42,-445.84 335.7,-439.62 434,-423.59 488.05,-414.77 548.12,-399.47 592.89,-386.96"/>
<polygon fill="black" stroke="black" points="594.1,-390.25 602.77,-384.17 592.2,-383.52 594.1,-390.25"/>
</g>
<!-- dpkg_repo&#45;&gt;p_vector -->
<g id="edge21" class="edge">
<title>dpkg_repo&#45;&gt;p_vector</title>
<path fill="none" stroke="black" d="M99.22,-431.2C98.17,-420.28 96.81,-406.23 95.64,-394.04"/>
<polygon fill="black" stroke="black" points="99.11,-393.54 94.66,-383.93 92.14,-394.22 99.11,-393.54"/>
</g>
</g>
</svg>
