<?xml version="1.0" encoding="UTF-8" standalone="no"?>
<!-- Generated by graphviz version 2.43.0 (0)
 -->

<!-- Title: %3 Pages: 1 -->

<svg
   xmlns:dc="http://purl.org/dc/elements/1.1/"
   xmlns:cc="http://creativecommons.org/ns#"
   xmlns:rdf="http://www.w3.org/1999/02/22-rdf-syntax-ns#"
   xmlns:svg="http://www.w3.org/2000/svg"
   xmlns="http://www.w3.org/2000/svg"
   xmlns:sodipodi="http://sodipodi.sourceforge.net/DTD/sodipodi-0.dtd"
   xmlns:inkscape="http://www.inkscape.org/namespaces/inkscape"
   width="747pt"
   height="600pt"
   viewBox="0.00 0.00 747.00 600.41"
   version="1.1"
   id="svg413"
   sodipodi:docname="aoinb.dot.svg"
   inkscape:version="0.92.4 (5da689c313, 2019-01-14)"
   inkscape:export-filename="aoinb.png"
   inkscape:export-xdpi="96"
   inkscape:export-ydpi="96">
  <metadata
     id="metadata419">
    <rdf:RDF>
      <cc:Work
         rdf:about="">
        <dc:format>image/svg+xml</dc:format>
        <dc:type
           rdf:resource="http://purl.org/dc/dcmitype/StillImage" />
      </cc:Work>
    </rdf:RDF>
  </metadata>
  <defs
     id="defs417" />
  <sodipodi:namedview
     pagecolor="#ffffff"
     bordercolor="#666666"
     borderopacity="1"
     objecttolerance="10"
     gridtolerance="10"
     guidetolerance="10"
     inkscape:pageopacity="0"
     inkscape:pageshadow="2"
     inkscape:window-width="1854"
     inkscape:window-height="1016"
     id="namedview415"
     showgrid="false"
     inkscape:zoom="0.834386"
     inkscape:cx="238.54008"
     inkscape:cy="366.18132"
     inkscape:window-x="66"
     inkscape:window-y="27"
     inkscape:window-maximized="1"
     inkscape:current-layer="graph0" />
  <g
     id="graph0"
     class="graph"
     transform="scale(1 1) rotate(0) translate(4 596.41)">
    <title
       id="title2">%3</title>
    <polygon
       fill="white"
       stroke="transparent"
       points="-4,4 -4,-596.41 743,-596.41 743,4 -4,4"
       id="polygon4" />
    <g
       id="clust1"
       class="cluster">
      <title
         id="title6">cluster_trigger</title>
      <polygon
         fill="none"
         stroke="black"
         points="174,-348.32 174,-423.32 400,-423.32 400,-348.32 174,-348.32"
         id="polygon8" />
      <text
         text-anchor="middle"
         x="287"
         y="-408.12"
         font-family="Times,serif"
         font-size="14.00"
         id="text10">Build Trigger</text>
    </g>
    <g
       id="clust2"
       class="cluster">
      <title
         id="title13">cluster_scheduler</title>
      <polygon
         fill="none"
         stroke="black"
         points="350,-46 350,-246.74 514,-246.74 514,-46 350,-46"
         id="polygon15" />
      <text
         text-anchor="middle"
         x="432"
         y="-231.54"
         font-family="Times,serif"
         font-size="14.00"
         id="text17">Scheduler</text>
    </g>
    <g
       id="clust3"
       class="cluster">
      <title
         id="title20">cluster_worker</title>
      <polygon
         fill="none"
         stroke="black"
         points="467,-318.24 467,-584.41 617,-584.41 617,-318.24 467,-318.24"
         id="polygon22" />
      <text
         text-anchor="middle"
         x="542"
         y="-569.21"
         font-family="Times,serif"
         font-size="14.00"
         id="text24">Worker</text>
    </g>
    <g
       id="clust4"
       class="cluster">
      <title
         id="title27">cluster_stats</title>
      <polygon
         fill="none"
         stroke="black"
         points="522,-117.74 522,-246.74 719,-246.74 719,-117.74 522,-117.74"
         id="polygon29" />
      <text
         text-anchor="middle"
         x="620.5"
         y="-231.54"
         font-family="Times,serif"
         font-size="14.00"
         id="text31">Log &amp; Stats</text>
    </g>
    <g
       id="clust5"
       class="cluster">
      <title
         id="title34">cluster_repo</title>
      <polygon
         fill="none"
         stroke="black"
         points="8,-254.74 8,-509.41 166,-509.41 166,-254.74 8,-254.74"
         id="polygon36" />
      <text
         text-anchor="middle"
         x="87"
         y="-494.21"
         font-family="Times,serif"
         font-size="14.00"
         id="text38">Repo manager</text>
    </g>
    <!-- rebuild -->
    <g
       id="node1"
       class="node">
      <title
         id="title41">rebuild</title>
      <ellipse
         fill="none"
         stroke="black"
         cx="83"
         cy="-197.74"
         rx="75.29"
         ry="18"
         id="ellipse43" />
      <text
         text-anchor="middle"
         x="83"
         y="-194.04"
         font-family="sans"
         font-size="14.00"
         id="text45">Rebuild checker</text>
    </g>
    <!-- git_repo -->
    <g
       id="node3"
       class="node">
      <title
         id="title48">git_repo</title>
      <polygon
         fill="none"
         stroke="black"
         points="219,-161.74 153,-161.74 153,-125.74 219,-125.74 219,-161.74"
         id="polygon50" />
      <text
         text-anchor="middle"
         x="186"
         y="-140.04"
         font-family="sans"
         font-size="14.00"
         id="text52">Git repo</text>
    </g>
    <!-- rebuild&#45;&gt;git_repo -->
    <g
       id="edge25"
       class="edge">
      <title
         id="title55">rebuild-&gt;git_repo</title>
      <path
         fill="none"
         stroke="black"
         d="M113.62,-181.28C123.07,-176.51 133.64,-171.17 143.72,-166.08"
         id="path57" />
      <polygon
         fill="black"
         stroke="black"
         points="145.45,-169.13 152.8,-161.5 142.29,-162.88 145.45,-169.13"
         id="polygon59" />
    </g>
    <!-- update -->
    <g
       id="node2"
       class="node">
      <title
         id="title62">update</title>
      <ellipse
         fill="none"
         stroke="black"
         cx="278"
         cy="-197.74"
         rx="63.89"
         ry="18"
         id="ellipse64" />
      <text
         text-anchor="middle"
         x="278"
         y="-194.04"
         font-family="sans"
         font-size="14.00"
         id="text66">Auto updater</text>
    </g>
    <!-- update&#45;&gt;git_repo -->
    <g
       id="edge26"
       class="edge">
      <title
         id="title69">update-&gt;git_repo</title>
      <path
         fill="none"
         stroke="black"
         d="M250.89,-181.42C242.79,-176.84 233.74,-171.72 225.03,-166.8"
         id="path71" />
      <polygon
         fill="black"
         stroke="black"
         points="226.56,-163.65 216.13,-161.77 223.12,-169.74 226.56,-163.65"
         id="polygon73" />
    </g>
    <!-- gitupd -->
    <g
       id="node11"
       class="node">
      <title
         id="title76">gitupd</title>
      <ellipse
         fill="none"
         stroke="black"
         cx="238"
         cy="-374.32"
         rx="55.79"
         ry="18"
         id="ellipse78" />
      <text
         text-anchor="middle"
         x="238"
         y="-370.62"
         font-family="sans"
         font-size="14.00"
         id="text80">Git commit</text>
    </g>
    <!-- git_repo&#45;&gt;gitupd -->
    <g
       id="edge1"
       class="edge">
      <title
         id="title83">git_repo-&gt;gitupd</title>
      <path
         fill="none"
         stroke="black"
         d="M188.8,-161.78C192.22,-182.09 198.38,-217.03 205,-246.74 211.15,-274.31 213.88,-280.91 221,-308.24 224.25,-320.7 227.85,-334.5 230.9,-346.17"
         id="path85" />
      <polygon
         fill="black"
         stroke="black"
         points="227.61,-347.41 233.52,-356.2 234.38,-345.64 227.61,-347.41"
         id="polygon87" />
    </g>
    <!-- trg_sch -->
    <g
       id="node4"
       class="node">
      <title
         id="title90">trg_sch</title>
      <polygon
         fill="none"
         stroke="black"
         points="354.5,-308.24 229.5,-308.24 229.5,-255.24 360.5,-255.24 360.5,-302.24 354.5,-308.24"
         id="polygon92" />
      <polyline
         fill="none"
         stroke="black"
         points="354.5,-308.24 354.5,-302.24 "
         id="polyline94" />
      <polyline
         fill="none"
         stroke="black"
         points="360.5,-302.24 354.5,-302.24 "
         id="polyline96" />
      <text
         text-anchor="middle"
         x="295"
         y="-293.04"
         font-family="sans"
         font-size="14.00"
         id="text98">Git url</text>
      <text
         text-anchor="middle"
         x="295"
         y="-278.04"
         font-family="sans"
         font-size="14.00"
         id="text100">Base commit+diff</text>
      <text
         text-anchor="middle"
         x="295"
         y="-263.04"
         font-family="sans"
         font-size="14.00"
         id="text102">Build list</text>
    </g>
    <!-- abbs_dep -->
    <g
       id="node12"
       class="node">
      <title
         id="title105">abbs_dep</title>
      <ellipse
         fill="none"
         stroke="black"
         cx="413"
         cy="-197.74"
         rx="48.19"
         ry="18"
         id="ellipse107" />
      <text
         text-anchor="middle"
         x="413"
         y="-194.04"
         font-family="sans"
         font-size="14.00"
         id="text109">abbs-dep</text>
    </g>
    <!-- trg_sch&#45;&gt;abbs_dep -->
    <g
       id="edge5"
       class="edge">
      <title
         id="title112">trg_sch-&gt;abbs_dep</title>
      <path
         fill="none"
         stroke="black"
         d="M338.42,-255.05C342.71,-252.31 346.97,-249.51 351,-246.74 362.68,-238.71 375.12,-229.27 385.77,-220.89"
         id="path114" />
      <polygon
         fill="black"
         stroke="black"
         points="388.22,-223.41 393.88,-214.45 383.87,-217.93 388.22,-223.41"
         id="polygon116" />
    </g>
    <!-- sch_wrk -->
    <g
       id="node5"
       class="node">
      <title
         id="title119">sch_wrk</title>
      <polygon
         fill="none"
         stroke="black"
         points="632,-36 540,-36 540,0 638,0 638,-30 632,-36"
         id="polygon121" />
      <polyline
         fill="none"
         stroke="black"
         points="632,-36 632,-30 "
         id="polyline123" />
      <polyline
         fill="none"
         stroke="black"
         points="638,-30 632,-30 "
         id="polyline125" />
      <text
         text-anchor="middle"
         x="589"
         y="-14.3"
         font-family="sans"
         font-size="14.00"
         id="text127">spec/defines</text>
    </g>
    <!-- downloader -->
    <g
       id="node15"
       class="node">
      <title
         id="title130">downloader</title>
      <ellipse
         fill="none"
         stroke="black"
         cx="547"
         cy="-535.41"
         rx="59.59"
         ry="18"
         id="ellipse132" />
      <text
         text-anchor="middle"
         x="547"
         y="-531.71"
         font-family="sans"
         font-size="14.00"
         id="text134">Downloader</text>
    </g>
    <!-- sch_wrk&#45;&gt;downloader -->
    <g
       id="edge9"
       class="edge">
      <title
         id="title137">sch_wrk-&gt;downloader</title>
      <path
         fill="none"
         stroke="black"
         d="M638.12,-36.07C681.86,-54.77 739,-89.4 739,-142.74 739,-375.32 739,-375.32 739,-375.32 739,-449.6 652.76,-495.77 595.87,-518.15"
         id="path139" />
      <polygon
         fill="black"
         stroke="black"
         points="594.41,-514.96 586.32,-521.79 596.91,-521.5 594.41,-514.96"
         id="polygon141" />
    </g>
    <!-- wrk_ls_log -->
    <g
       id="node6"
       class="node">
      <title
         id="title144">wrk_ls_log</title>
      <polygon
         fill="none"
         stroke="black"
         stroke-dasharray="5,2"
         points="676,-299.74 628,-299.74 628,-263.74 682,-263.74 682,-293.74 676,-299.74"
         id="polygon146" />
      <polyline
         fill="none"
         stroke="black"
         stroke-dasharray="5,2"
         points="676,-299.74 676,-293.74 "
         id="polyline148" />
      <polyline
         fill="none"
         stroke="black"
         stroke-dasharray="5,2"
         points="682,-293.74 676,-293.74 "
         id="polyline150" />
      <text
         text-anchor="middle"
         x="655"
         y="-278.04"
         font-family="sans"
         font-size="14.00"
         id="text152">Log</text>
    </g>
    <!-- fs -->
    <g
       id="node18"
       class="node">
      <title
         id="title155">fs</title>
      <polygon
         fill="none"
         stroke="black"
         points="710.5,-215.74 625.5,-215.74 625.5,-179.74 710.5,-179.74 710.5,-215.74"
         id="polygon157" />
      <text
         text-anchor="middle"
         x="668"
         y="-194.04"
         font-family="sans"
         font-size="14.00"
         id="text159">Filesystem</text>
    </g>
    <!-- wrk_ls_log&#45;&gt;fs -->
    <g
       id="edge16"
       class="edge">
      <title
         id="title162">wrk_ls_log-&gt;fs</title>
      <path
         fill="none"
         stroke="black"
         stroke-dasharray="5,2"
         d="M657.76,-263.35C659.47,-252.51 661.72,-238.34 663.67,-226.03"
         id="path164" />
      <polygon
         fill="black"
         stroke="black"
         points="667.18,-226.25 665.29,-215.82 660.27,-225.15 667.18,-226.25"
         id="polygon166" />
    </g>
    <!-- wrk_ls_stats -->
    <g
       id="node7"
       class="node">
      <title
         id="title169">wrk_ls_stats</title>
      <polygon
         fill="none"
         stroke="black"
         stroke-dasharray="5,2"
         points="590,-299.74 542,-299.74 542,-263.74 596,-263.74 596,-293.74 590,-299.74"
         id="polygon171" />
      <polyline
         fill="none"
         stroke="black"
         stroke-dasharray="5,2"
         points="590,-299.74 590,-293.74 "
         id="polyline173" />
      <polyline
         fill="none"
         stroke="black"
         stroke-dasharray="5,2"
         points="596,-293.74 590,-293.74 "
         id="polyline175" />
      <text
         text-anchor="middle"
         x="569"
         y="-278.04"
         font-family="sans"
         font-size="14.00"
         id="text177">Stats</text>
    </g>
    <!-- db -->
    <g
       id="node19"
       class="node">
      <title
         id="title180">db</title>
      <polygon
         fill="none"
         stroke="black"
         points="607.5,-215.74 530.5,-215.74 530.5,-179.74 607.5,-179.74 607.5,-215.74"
         id="polygon182" />
      <text
         text-anchor="middle"
         x="569"
         y="-194.04"
         font-family="sans"
         font-size="14.00"
         id="text184">Database</text>
    </g>
    <!-- wrk_ls_stats&#45;&gt;db -->
    <g
       id="edge17"
       class="edge">
      <title
         id="title187">wrk_ls_stats-&gt;db</title>
      <path
         fill="none"
         stroke="black"
         stroke-dasharray="5,2"
         d="M569,-263.35C569,-252.51 569,-238.34 569,-226.03"
         id="path189" />
      <polygon
         fill="black"
         stroke="black"
         points="572.5,-225.82 569,-215.82 565.5,-225.82 572.5,-225.82"
         id="polygon191" />
    </g>
    <!-- wrk_sch -->
    <g
       id="node8"
       class="node">
      <title
         id="title194">wrk_sch</title>
      <polygon
         fill="none"
         stroke="black"
         points="518,-299.74 466,-299.74 466,-263.74 524,-263.74 524,-293.74 518,-299.74"
         id="polygon196" />
      <polyline
         fill="none"
         stroke="black"
         points="518,-299.74 518,-293.74 "
         id="polyline198" />
      <polyline
         fill="none"
         stroke="black"
         points="524,-293.74 518,-293.74 "
         id="polyline200" />
      <text
         text-anchor="middle"
         x="495"
         y="-278.04"
         font-family="sans"
         font-size="14.00"
         id="text202">Status</text>
    </g>
    <!-- scheduler -->
    <g
       id="node13"
       class="node">
      <title
         id="title205">scheduler</title>
      <ellipse
         fill="none"
         stroke="black"
         cx="432"
         cy="-143.74"
         rx="74.19"
         ry="18"
         id="ellipse207" />
      <text
         text-anchor="middle"
         x="432"
         y="-140.04"
         font-family="sans"
         font-size="14.00"
         id="text209">Work scheduler</text>
    </g>
    <!-- wrk_sch&#45;&gt;scheduler -->
    <g
       id="edge13"
       class="edge">
      <title
         id="title212">wrk_sch-&gt;scheduler</title>
      <path
         fill="none"
         stroke="black"
         d="M493.77,-263.52C491.6,-242.46 485.74,-206.32 470,-179.74 467.62,-175.72 464.64,-171.9 461.4,-168.34"
         id="path214" />
      <polygon
         fill="black"
         stroke="black"
         points="463.59,-165.59 454.02,-161.04 458.67,-170.56 463.59,-165.59"
         id="polygon216" />
    </g>
    <!-- wrk_repo -->
    <g
       id="node9"
       class="node">
      <title
         id="title219">wrk_repo</title>
      <polygon
         fill="none"
         stroke="black"
         points="441,-299.74 393,-299.74 393,-263.74 447,-263.74 447,-293.74 441,-299.74"
         id="polygon221" />
      <polyline
         fill="none"
         stroke="black"
         points="441,-299.74 441,-293.74 "
         id="polyline223" />
      <polyline
         fill="none"
         stroke="black"
         points="447,-293.74 441,-293.74 "
         id="polyline225" />
      <text
         text-anchor="middle"
         x="420"
         y="-278.04"
         font-family="sans"
         font-size="14.00"
         id="text227">.deb</text>
    </g>
    <!-- dpkg_repo -->
    <g
       id="node23"
       class="node">
      <title
         id="title230">dpkg_repo</title>
      <polygon
         fill="none"
         stroke="black"
         points="158,-478.41 54,-478.41 54,-440.41 158,-440.41 158,-478.41"
         id="polygon232" />
      <text
         text-anchor="middle"
         x="106"
         y="-463.21"
         font-family="sans"
         font-size="14.00"
         id="text234">dpkg repo</text>
      <text
         text-anchor="middle"
         x="106"
         y="-448.21"
         font-family="sans"
         font-size="14.00"
         id="text236">(source/local)</text>
    </g>
    <!-- wrk_repo&#45;&gt;dpkg_repo -->
    <g
       id="edge22"
       class="edge">
      <title
         id="title239">wrk_repo-&gt;dpkg_repo</title>
      <path
         d="m 424.02,-299.83 c 5.85,-29.65 13.64948,-92.39896 -19.12052,-125.28896 C 388.57948,-441.50896 250.59,-450.24 168.15,-455.16"
         id="path241"
         inkscape:connector-curvature="0"
         style="fill:none;stroke:#000000"
         sodipodi:nodetypes="ccc" />
      <polygon
         fill="black"
         stroke="black"
         points="167.91,-451.67 158.13,-455.75 168.32,-458.66 167.91,-451.67"
         id="polygon243" />
    </g>
    <!-- manual -->
    <g
       id="node10"
       class="node">
      <title
         id="title246">manual</title>
      <ellipse
         fill="none"
         stroke="black"
         cx="352"
         cy="-374.32"
         rx="40.09"
         ry="18"
         id="ellipse248" />
      <text
         text-anchor="middle"
         x="352"
         y="-370.62"
         font-family="sans"
         font-size="14.00"
         id="text250">Manual</text>
    </g>
    <!-- gitupd&#45;&gt;trg_sch -->
    <g
       id="edge4"
       class="edge">
      <title
         id="title253">gitupd-&gt;trg_sch</title>
      <path
         fill="none"
         stroke="black"
         d="M253.73,-348.33C261.58,-335.86 271.05,-320.81 278.94,-308.27"
         id="path255" />
    </g>
    <!-- abbs_dep&#45;&gt;scheduler -->
    <g
       id="edge2"
       class="edge">
      <title
         id="title258">abbs_dep-&gt;scheduler</title>
      <path
         fill="none"
         stroke="black"
         d="M419.22,-179.71C420.2,-177.05 421.22,-174.24 422.25,-171.42"
         id="path260" />
      <polygon
         fill="black"
         stroke="black"
         points="425.56,-172.58 425.7,-161.98 418.98,-170.17 425.56,-172.58"
         id="polygon262" />
    </g>
    <!-- ldownloader -->
    <g
       id="node14"
       class="node">
      <title
         id="title265">ldownloader</title>
      <ellipse
         fill="none"
         stroke="black"
         stroke-dasharray="5,2"
         cx="436"
         cy="-80.87"
         rx="65.11"
         ry="26.74"
         id="ellipse267" />
      <text
         text-anchor="middle"
         x="436"
         y="-84.67"
         font-family="sans"
         font-size="14.00"
         id="text269">Downloader</text>
      <text
         text-anchor="middle"
         x="436"
         y="-69.67"
         font-family="sans"
         font-size="14.00"
         id="text271">(local)</text>
    </g>
    <!-- scheduler&#45;&gt;ldownloader -->
    <g
       id="edge3"
       class="edge">
      <title
         id="title274">scheduler-&gt;ldownloader</title>
      <path
         fill="none"
         stroke="black"
         d="M433.14,-125.46C433.29,-123.06 433.46,-120.53 433.63,-117.94"
         id="path276" />
      <polygon
         fill="black"
         stroke="black"
         points="437.13,-118.04 434.29,-107.83 430.15,-117.58 437.13,-118.04"
         id="polygon278" />
    </g>
    <!-- ldownloader&#45;&gt;sch_wrk -->
    <g
       id="edge8"
       class="edge">
      <title
         id="title281">ldownloader-&gt;sch_wrk</title>
      <path
         fill="none"
         stroke="black"
         d="M481.91,-61.61C502.33,-53.48 526.23,-43.97 546.27,-36"
         id="path283" />
    </g>
    <!-- ciel -->
    <g
       id="node16"
       class="node">
      <title
         id="title286">ciel</title>
      <ellipse
         fill="none"
         stroke="black"
         cx="544"
         cy="-459.41"
         rx="27"
         ry="18"
         id="ellipse288" />
      <text
         text-anchor="middle"
         x="544"
         y="-455.71"
         font-family="sans"
         font-size="14.00"
         id="text290">ciel</text>
    </g>
    <!-- downloader&#45;&gt;ciel -->
    <g
       id="edge6"
       class="edge">
      <title
         id="title293">downloader-&gt;ciel</title>
      <path
         fill="none"
         stroke="black"
         d="M546.3,-517.24C545.95,-508.46 545.51,-497.57 545.11,-487.67"
         id="path295" />
      <polygon
         fill="black"
         stroke="black"
         points="548.59,-487.33 544.69,-477.48 541.6,-487.61 548.59,-487.33"
         id="polygon297" />
    </g>
    <!-- acbs -->
    <g
       id="node17"
       class="node">
      <title
         id="title300">acbs</title>
      <ellipse
         fill="none"
         stroke="black"
         cx="542"
         cy="-374.32"
         rx="67.35"
         ry="48.17"
         id="ellipse302" />
      <text
         text-anchor="middle"
         x="542"
         y="-393.12"
         font-family="sans"
         font-size="14.00"
         id="text304">acbs (new)</text>
      <text
         text-anchor="middle"
         x="542"
         y="-378.12"
         font-family="sans"
         font-size="14.00"
         id="text306">systemd-run</text>
      <text
         text-anchor="middle"
         x="542"
         y="-363.12"
         font-family="sans"
         font-size="14.00"
         id="text308">autobuild3</text>
      <text
         text-anchor="middle"
         x="542"
         y="-348.12"
         font-family="sans"
         font-size="14.00"
         id="text310">Test runner</text>
    </g>
    <!-- ciel&#45;&gt;acbs -->
    <g
       id="edge7"
       class="edge">
      <title
         id="title313">ciel-&gt;acbs</title>
      <path
         fill="none"
         stroke="black"
         d="M543.59,-441.19C543.52,-438.61 543.46,-435.83 543.39,-432.93"
         id="path315" />
      <polygon
         fill="black"
         stroke="black"
         points="546.88,-432.6 543.14,-422.69 539.88,-432.77 546.88,-432.6"
         id="polygon317" />
    </g>
    <!-- acbs&#45;&gt;wrk_ls_log -->
    <g
       id="edge11"
       class="edge">
      <title
         id="title320">acbs-&gt;wrk_ls_log</title>
      <path
         fill="none"
         stroke="black"
         stroke-dasharray="5,2"
         d="M586.34,-337.78C602.66,-324.7 620.41,-310.47 633.77,-299.76"
         id="path322" />
    </g>
    <!-- acbs&#45;&gt;wrk_ls_stats -->
    <g
       id="edge12"
       class="edge">
      <title
         id="title325">acbs-&gt;wrk_ls_stats</title>
      <path
         fill="none"
         stroke="black"
         stroke-dasharray="5,2"
         d="M555.74,-327.24C558.66,-317.45 561.56,-307.71 563.9,-299.84"
         id="path327" />
    </g>
    <!-- acbs&#45;&gt;wrk_sch -->
    <g
       id="edge10"
       class="edge">
      <title
         id="title330">acbs-&gt;wrk_sch</title>
      <path
         fill="none"
         stroke="black"
         d="M519.05,-329.09C513.64,-318.67 508.2,-308.18 503.86,-299.82"
         id="path332" />
    </g>
    <!-- acbs&#45;&gt;wrk_repo -->
    <g
       id="edge21"
       class="edge">
      <title
         id="title335">acbs-&gt;wrk_repo</title>
      <path
         fill="none"
         stroke="black"
         d="M495.88,-339.08C477.79,-325.65 457.85,-310.84 442.95,-299.78"
         id="path337" />
    </g>
    <!-- dashboard -->
    <g
       id="node20"
       class="node">
      <title
         id="title340">dashboard</title>
      <ellipse
         fill="none"
         stroke="black"
         cx="620"
         cy="-143.74"
         rx="55.49"
         ry="18"
         id="ellipse342" />
      <text
         text-anchor="middle"
         x="620"
         y="-140.04"
         font-family="sans"
         font-size="14.00"
         id="text344">Dashboard</text>
    </g>
    <!-- fs&#45;&gt;dashboard -->
    <g
       id="edge14"
       class="edge">
      <title
         id="title347">fs-&gt;dashboard</title>
      <path
         fill="none"
         stroke="black"
         d="M652.28,-179.71C649.04,-176.2 645.56,-172.43 642.13,-168.72"
         id="path349" />
      <polygon
         fill="black"
         stroke="black"
         points="644.62,-166.25 635.26,-161.27 639.47,-171 644.62,-166.25"
         id="polygon351" />
    </g>
    <!-- db&#45;&gt;scheduler -->
    <g
       id="edge18"
       class="edge">
      <title
         id="title354">db-&gt;scheduler</title>
      <path
         fill="none"
         stroke="black"
         stroke-dasharray="5,2"
         d="M530.47,-182.12C514.73,-176.14 496.35,-169.16 479.76,-162.87"
         id="path356" />
      <polygon
         fill="black"
         stroke="black"
         points="480.83,-159.53 470.24,-159.25 478.34,-166.07 480.83,-159.53"
         id="polygon358" />
    </g>
    <!-- db&#45;&gt;dashboard -->
    <g
       id="edge15"
       class="edge">
      <title
         id="title361">db-&gt;dashboard</title>
      <path
         fill="none"
         stroke="black"
         d="M585.7,-179.71C589.24,-176.1 593.04,-172.23 596.77,-168.42"
         id="path363" />
      <polygon
         fill="black"
         stroke="black"
         points="599.28,-170.86 603.78,-161.27 594.28,-165.96 599.28,-170.86"
         id="polygon365" />
    </g>
    <!-- p_vector -->
    <g
       id="node21"
       class="node">
      <title
         id="title368">p_vector</title>
      <ellipse
         fill="none"
         stroke="black"
         cx="96"
         cy="-374.32"
         rx="44.69"
         ry="18"
         id="ellipse370" />
      <text
         text-anchor="middle"
         x="96"
         y="-370.62"
         font-family="sans"
         font-size="14.00"
         id="text372">p-vector</text>
    </g>
    <!-- metadata -->
    <g
       id="node22"
       class="node">
      <title
         id="title375">metadata</title>
      <polygon
         fill="none"
         stroke="black"
         points="157.5,-300.74 16.5,-300.74 16.5,-262.74 157.5,-262.74 157.5,-300.74"
         id="polygon377" />
      <text
         text-anchor="middle"
         x="87"
         y="-285.54"
         font-family="sans"
         font-size="14.00"
         id="text379">Metadata Database</text>
      <text
         text-anchor="middle"
         x="87"
         y="-270.54"
         font-family="sans"
         font-size="14.00"
         id="text381">Relationship QA</text>
    </g>
    <!-- p_vector&#45;&gt;metadata -->
    <g
       id="edge20"
       class="edge">
      <title
         id="title384">p_vector-&gt;metadata</title>
      <path
         fill="none"
         stroke="black"
         d="M94.31,-356.29C93.05,-343.58 91.29,-325.95 89.82,-311.13"
         id="path386" />
      <polygon
         fill="black"
         stroke="black"
         points="93.28,-310.55 88.81,-300.95 86.31,-311.24 93.28,-310.55"
         id="polygon388" />
    </g>
    <!-- metadata&#45;&gt;rebuild -->
    <g
       id="edge24"
       class="edge">
      <title
         id="title391">metadata-&gt;rebuild</title>
      <path
         fill="none"
         stroke="black"
         d="M86.11,-262.54C85.59,-251.74 84.91,-237.84 84.32,-225.78"
         id="path393" />
      <polygon
         fill="black"
         stroke="black"
         points="87.81,-225.59 83.83,-215.77 80.82,-225.93 87.81,-225.59"
         id="polygon395" />
    </g>
    <!-- dpkg_repo&#45;&gt;acbs -->
    <g
       id="edge23"
       class="edge">
      <title
         id="title398">dpkg_repo-&gt;acbs</title>
      <path
         d="m 158.04,-469.95296 c 65.47,1.88 124.61175,-0.50148 219.74257,25.04547 C 392.65175,-440.91444 464.31,-413.55 478.7,-407.38"
         id="path400"
         inkscape:connector-curvature="0"
         style="fill:none;stroke:#000000"
         sodipodi:nodetypes="csc" />
      <polygon
         fill="black"
         stroke="black"
         points="480.25,-410.52 487.99,-403.28 477.43,-404.11 480.25,-410.52"
         id="polygon402" />
    </g>
    <!-- dpkg_repo&#45;&gt;p_vector -->
    <g
       id="edge19"
       class="edge">
      <title
         id="title405">dpkg_repo-&gt;p_vector</title>
      <path
         fill="none"
         stroke="black"
         d="M103.83,-440.38C102.51,-429.38 100.79,-415.1 99.3,-402.72"
         id="path407" />
      <polygon
         fill="black"
         stroke="black"
         points="102.73,-401.97 98.06,-392.46 95.78,-402.81 102.73,-401.97"
         id="polygon409" />
    </g>
    <text
       xml:space="preserve"
       style="font-size:9.00615025px;line-height:1.25;stroke-width:0.75051248"
       x="8.5105228"
       y="-560.99194"
       id="text423"><tspan
         sodipodi:role="line"
         id="tspan421"
         x="8.5105228"
         y="-560.99194"
         style="font-size:22.01503372px;stroke-width:0.75051248">AOSC Open Infrastructure for</tspan><tspan
         sodipodi:role="line"
         x="8.5105228"
         y="-533.47314"
         style="font-size:22.01503372px;stroke-width:0.75051248"
         id="tspan4128">Network Building</tspan></text>
  </g>
</svg>
